<svg xmlns="http://www.w3.org/2000/svg" width="47" height="40" fill="none"><g clip-path="url('#clip0_177_19')"><path fill="#0866FF" d="M47 19.5C47 11.492 40.508 5 32.5 5S18 11.492 18 19.5c0 6.8 4.682 12.506 10.997 14.073v-9.642h-2.99V19.5h2.99v-1.91c0-4.935 2.234-7.222 7.08-7.222.918 0 2.503.18 3.152.36v4.017c-.343-.036-.937-.054-1.675-.054-2.378 0-3.297.9-3.297 3.242V19.5h4.737l-.814 4.431h-3.923v9.963c7.18-.867 12.744-6.98 12.744-14.394z"/><path fill="#fff" d="m38.18 23.931.813-4.431h-4.736v-1.567c0-2.342.919-3.242 3.296-3.242.738 0 1.333.018 1.675.054v-4.017c-.648-.18-2.234-.36-3.152-.36-4.846 0-7.08 2.287-7.08 7.223V19.5h-2.99v4.431h2.99v9.642a14.5 14.5 0 0 0 5.26.32v-9.962h3.923"/></g><defs><clipPath id="clip0_177_19"><path fill="#fff" d="M18 5h29v29H18z"/></clipPath></defs></svg>